<?xml version="1.0" standalone="no"?>
<!DOCTYPE svg PUBLIC "-//W3C//DTD SVG 20010904//EN"
 "http://www.w3.org/TR/2001/REC-SVG-20010904/DTD/svg10.dtd">
<svg version="1.0" xmlns="http://www.w3.org/2000/svg"
 width="900.000000pt" height="900.000000pt" viewBox="0 0 900.000000 900.000000"
 preserveAspectRatio="xMidYMid meet">
<metadata>
Created by potrace 1.11, written by Peter Selinger 2001-2013
</metadata>
<g transform="translate(0.000000,900.000000) scale(0.100000,-0.100000)"
fill="#000000" stroke="none">
<path d="M170 8915 l0 -85 -85 0 -85 0 0 -85 0 -85 85 0 85 0 0 -85 0 -85 -85
0 -85 0 0 -85 0 -85 85 0 85 0 0 -85 0 -85 -85 0 -85 0 0 -85 0 -85 85 0 85 0
0 -85 0 -85 -85 0 -85 0 0 -85 0 -85 85 0 85 0 0 -85 0 -85 -85 0 -85 0 0 -85
0 -85 85 0 85 0 0 -85 0 -85 -85 0 -85 0 0 -85 0 -85 85 0 85 0 0 -85 0 -85
-85 0 -85 0 0 -85 0 -85 85 0 85 0 0 -85 0 -85 -85 0 -85 0 0 -85 0 -85 85 0
85 0 0 -85 0 -85 -85 0 -85 0 0 -85 0 -85 85 0 85 0 0 -85 0 -85 -85 0 -85 0
0 -85 0 -85 85 0 85 0 0 -85 0 -85 -85 0 -85 0 0 -85 0 -85 85 0 85 0 0 -85 0
-85 -85 0 -85 0 0 -85 0 -85 85 0 85 0 0 -85 0 -85 -85 0 -85 0 0 -85 0 -85
85 0 85 0 0 -85 0 -85 -85 0 -85 0 0 -85 0 -85 85 0 85 0 0 -85 0 -85 -85 0
-85 0 0 -85 0 -85 85 0 85 0 0 -85 0 -85 -85 0 -85 0 0 -85 0 -85 85 0 85 0 0
-85 0 -85 -85 0 -85 0 0 -85 0 -85 85 0 85 0 0 -85 0 -85 -85 0 -85 0 0 -85 0
-85 85 0 85 0 0 -85 0 -85 -85 0 -85 0 0 -85 0 -85 85 0 85 0 0 -85 0 -85 -85
0 -85 0 0 -85 0 -85 85 0 85 0 0 -85 0 -85 -85 0 -85 0 0 -85 0 -85 85 0 85 0
0 -85 0 -85 -85 0 -85 0 0 -85 0 -85 85 0 85 0 0 -85 0 -85 -85 0 -85 0 0 -85
0 -85 85 0 85 0 0 -85 0 -85 -85 0 -85 0 0 -85 0 -85 85 0 85 0 0 -85 0 -85
-85 0 -85 0 0 -85 0 -85 85 0 85 0 0 -85 0 -85 -85 0 -85 0 0 -85 0 -85 85 0
85 0 0 -80 0 -80 85 0 85 0 0 80 0 80 85 0 85 0 0 -80 0 -80 85 0 85 0 0 80 0
80 85 0 85 0 0 -80 0 -80 85 0 85 0 0 80 0 80 85 0 85 0 0 -80 0 -80 85 0 85
0 0 80 0 80 85 0 85 0 0 -80 0 -80 85 0 85 0 0 80 0 80 85 0 85 0 0 -80 0 -80
85 0 85 0 0 80 0 80 85 0 85 0 0 -80 0 -80 85 0 85 0 0 80 0 80 85 0 85 0 0
-80 0 -80 85 0 85 0 0 80 0 80 85 0 85 0 0 -80 0 -80 85 0 85 0 0 80 0 80 85
0 85 0 0 -80 0 -80 85 0 85 0 0 80 0 80 85 0 85 0 0 -80 0 -80 85 0 85 0 0 80
0 80 85 0 85 0 0 -80 0 -80 85 0 85 0 0 80 0 80 85 0 85 0 0 -80 0 -80 85 0
85 0 0 80 0 80 85 0 85 0 0 -80 0 -80 85 0 85 0 0 80 0 80 85 0 85 0 0 -80 0
-80 85 0 85 0 0 80 0 80 85 0 85 0 0 -80 0 -80 85 0 85 0 0 80 0 80 85 0 85 0
0 -80 0 -80 85 0 85 0 0 80 0 80 85 0 85 0 0 -80 0 -80 85 0 85 0 0 80 0 80
85 0 85 0 0 -80 0 -80 85 0 85 0 0 80 0 80 85 0 85 0 0 -80 0 -80 85 0 85 0 0
80 0 80 85 0 85 0 0 -80 0 -80 85 0 85 0 0 80 0 80 85 0 85 0 0 -80 0 -80 85
0 85 0 0 80 0 80 85 0 85 0 0 -80 0 -80 85 0 85 0 0 80 0 80 85 0 85 0 0 -80
0 -80 85 0 85 0 0 80 0 80 85 0 85 0 0 -80 0 -80 85 0 85 0 0 80 0 80 85 0 85
0 0 -80 0 -80 85 0 85 0 0 80 0 80 80 0 80 0 0 85 0 85 -80 0 -80 0 0 85 0 85
80 0 80 0 0 85 0 85 -80 0 -80 0 0 85 0 85 80 0 80 0 0 85 0 85 -80 0 -80 0 0
85 0 85 80 0 80 0 0 85 0 85 -80 0 -80 0 0 85 0 85 80 0 80 0 0 85 0 85 -80 0
-80 0 0 85 0 85 80 0 80 0 0 85 0 85 -80 0 -80 0 0 85 0 85 80 0 80 0 0 85 0
85 -80 0 -80 0 0 85 0 85 80 0 80 0 0 85 0 85 -80 0 -80 0 0 85 0 85 80 0 80
0 0 85 0 85 -80 0 -80 0 0 85 0 85 80 0 80 0 0 85 0 85 -80 0 -80 0 0 85 0 85
80 0 80 0 0 85 0 85 -80 0 -80 0 0 85 0 85 80 0 80 0 0 85 0 85 -80 0 -80 0 0
85 0 85 80 0 80 0 0 85 0 85 -80 0 -80 0 0 85 0 85 80 0 80 0 0 85 0 85 -80 0
-80 0 0 85 0 85 80 0 80 0 0 85 0 85 -80 0 -80 0 0 85 0 85 80 0 80 0 0 85 0
85 -80 0 -80 0 0 85 0 85 80 0 80 0 0 85 0 85 -80 0 -80 0 0 85 0 85 80 0 80
0 0 85 0 85 -80 0 -80 0 0 85 0 85 80 0 80 0 0 85 0 85 -80 0 -80 0 0 85 0 85
80 0 80 0 0 85 0 85 -80 0 -80 0 0 85 0 85 80 0 80 0 0 85 0 85 -80 0 -80 0 0
85 0 85 80 0 80 0 0 85 0 85 -80 0 -80 0 0 85 0 85 80 0 80 0 0 85 0 85 -80 0
-80 0 0 85 0 85 80 0 80 0 0 85 0 85 -80 0 -80 0 0 85 0 85 80 0 80 0 0 85 0
85 -80 0 -80 0 0 85 0 85 80 0 80 0 0 85 0 85 -80 0 -80 0 0 85 0 85 -85 0
-85 0 0 -85 0 -85 -85 0 -85 0 0 85 0 85 -85 0 -85 0 0 -85 0 -85 -85 0 -85 0
0 85 0 85 -85 0 -85 0 0 -85 0 -85 -85 0 -85 0 0 85 0 85 -85 0 -85 0 0 -85 0
-85 -85 0 -85 0 0 85 0 85 -85 0 -85 0 0 -85 0 -85 -85 0 -85 0 0 85 0 85 -85
0 -85 0 0 -85 0 -85 -85 0 -85 0 0 85 0 85 -85 0 -85 0 0 -85 0 -85 -85 0 -85
0 0 85 0 85 -85 0 -85 0 0 -85 0 -85 -85 0 -85 0 0 85 0 85 -85 0 -85 0 0 -85
0 -85 -85 0 -85 0 0 85 0 85 -85 0 -85 0 0 -85 0 -85 -85 0 -85 0 0 85 0 85
-85 0 -85 0 0 -85 0 -85 -85 0 -85 0 0 85 0 85 -85 0 -85 0 0 -85 0 -85 -85 0
-85 0 0 85 0 85 -85 0 -85 0 0 -85 0 -85 -85 0 -85 0 0 85 0 85 -85 0 -85 0 0
-85 0 -85 -85 0 -85 0 0 85 0 85 -85 0 -85 0 0 -85 0 -85 -85 0 -85 0 0 85 0
85 -85 0 -85 0 0 -85 0 -85 -85 0 -85 0 0 85 0 85 -85 0 -85 0 0 -85 0 -85
-85 0 -85 0 0 85 0 85 -85 0 -85 0 0 -85 0 -85 -85 0 -85 0 0 85 0 85 -85 0
-85 0 0 -85 0 -85 -85 0 -85 0 0 85 0 85 -85 0 -85 0 0 -85 0 -85 -85 0 -85 0
0 85 0 85 -85 0 -85 0 0 -85 0 -85 -85 0 -85 0 0 85 0 85 -85 0 -85 0 0 -85 0
-85 -85 0 -85 0 0 85 0 85 -85 0 -85 0 0 -85 0 -85 -85 0 -85 0 0 85 0 85 -85
0 -85 0 0 -85 0 -85 -85 0 -85 0 0 85 0 85 -85 0 -85 0 0 -85 0 -85 -85 0 -85
0 0 85 0 85 -85 0 -85 0 0 -85z m170 -170 l0 -85 85 0 85 0 0 85 0 85 85 0 85
0 0 -85 0 -85 85 0 85 0 0 85 0 85 85 0 85 0 0 -85 0 -85 85 0 85 0 0 85 0 85
85 0 85 0 0 -85 0 -85 85 0 85 0 0 85 0 85 85 0 85 0 0 -85 0 -85 85 0 85 0 0
85 0 85 85 0 85 0 0 -85 0 -85 85 0 85 0 0 85 0 85 85 0 85 0 0 -85 0 -85 85
0 85 0 0 85 0 85 85 0 85 0 0 -85 0 -85 85 0 85 0 0 85 0 85 85 0 85 0 0 -85
0 -85 85 0 85 0 0 85 0 85 85 0 85 0 0 -85 0 -85 85 0 85 0 0 85 0 85 85 0 85
0 0 -85 0 -85 85 0 85 0 0 85 0 85 85 0 85 0 0 -85 0 -85 85 0 85 0 0 85 0 85
85 0 85 0 0 -85 0 -85 85 0 85 0 0 85 0 85 85 0 85 0 0 -85 0 -85 85 0 85 0 0
85 0 85 85 0 85 0 0 -85 0 -85 85 0 85 0 0 85 0 85 85 0 85 0 0 -85 0 -85 85
0 85 0 0 85 0 85 85 0 85 0 0 -85 0 -85 85 0 85 0 0 85 0 85 85 0 85 0 0 -85
0 -85 85 0 85 0 0 85 0 85 85 0 85 0 0 -85 0 -85 85 0 85 0 0 85 0 85 85 0 85
0 0 -85 0 -85 85 0 85 0 0 85 0 85 85 0 85 0 0 -85 0 -85 85 0 85 0 0 85 0 85
85 0 85 0 0 -85 0 -85 85 0 85 0 0 85 0 85 85 0 85 0 0 -85 0 -85 85 0 85 0 0
85 0 85 85 0 85 0 0 -85 0 -85 85 0 85 0 0 85 0 85 85 0 85 0 0 -85 0 -85 85
0 85 0 0 85 0 85 85 0 85 0 0 -85 0 -85 -85 0 -85 0 0 -85 0 -85 85 0 85 0 0
-85 0 -85 -85 0 -85 0 0 -85 0 -85 85 0 85 0 0 -85 0 -85 -85 0 -85 0 0 -85 0
-85 85 0 85 0 0 -85 0 -85 -85 0 -85 0 0 -85 0 -85 85 0 85 0 0 -84 0 -85 -87
-3 -88 -3 3 88 3 87 -85 0 -86 0 0 -76 0 -76 -27 6 c-68 13 -119 20 -130 17
-9 -1 -13 17 -13 64 l0 65 -85 0 -85 0 0 -49 0 -50 -37 5 c-21 2 -47 6 -58 8
-11 3 -32 5 -47 5 -26 1 -28 4 -28 41 l0 40 -85 0 c-85 0 -85 0 -85 -26 0 -27
-5 -27 -105 -9 -11 2 -30 4 -42 4 -13 1 -23 7 -23 16 0 12 -16 15 -85 15 l-85
0 0 85 0 85 -85 0 -84 0 -3 -72 c-3 -81 5 -75 -88 -63 -80 9 -80 10 -80 76 l0
59 -85 0 -85 0 0 -51 c0 -43 -2 -50 -17 -45 -10 3 -40 8 -67 10 -78 8 -86 13
-86 52 l0 34 -85 0 c-84 0 -85 0 -85 -25 0 -22 -4 -25 -27 -21 -83 14 -129 20
-135 18 -5 -1 -8 5 -8 13 0 12 -16 15 -85 15 l-85 0 0 85 0 85 -85 0 -85 0 0
-76 c0 -41 -3 -73 -7 -71 -5 3 -32 8 -62 11 -103 12 -101 11 -101 77 l0 59
-85 0 -85 0 0 -45 c0 -43 -6 -51 -35 -45 -5 1 -28 3 -50 5 -22 2 -41 5 -42 6
-4 2 -21 6 -33 8 -5 0 -10 16 -10 35 0 34 -1 35 -42 38 l-43 3 0 70 c0 93 1
95 46 95 37 0 39 1 39 33 0 17 9 55 19 82 l19 50 66 3 66 3 0 84 0 85 -85 0
c-72 0 -85 -3 -85 -16 0 -14 -2 -15 -17 -3 -15 13 -15 14 0 17 14 3 17 17 17
88 l0 84 -85 0 -85 0 0 -44 0 -43 -47 8 c-27 5 -55 8 -63 7 -51 -4 -60 1 -60
37 l0 35 -85 0 -85 0 0 -66 c0 -86 -18 -103 -107 -104 l-63 0 0 -85 0 -85 28
0 c24 0 29 -5 39 -43 8 -27 28 -60 52 -85 l41 -42 -80 0 -80 0 0 -74 0 -73
-47 9 c-46 9 -83 14 -110 17 -9 1 -13 20 -13 61 l0 60 -85 0 -85 0 0 -51 c0
-27 -3 -48 -7 -46 -5 3 -30 8 -58 11 -102 13 -105 14 -105 52 l0 34 -85 0
c-85 0 -85 0 -85 -26 0 -21 -4 -25 -17 -19 -10 3 -38 8 -63 11 -76 8 -84 10
-88 22 -2 8 -33 12 -88 12 l-84 0 0 85 0 85 -85 0 -85 0 0 -70 c0 -38 -4 -70
-10 -70 -5 0 -43 5 -85 11 l-75 11 0 59 0 59 -85 0 -85 0 0 -46 0 -46 -52 6
c-29 4 -62 8 -73 11 -11 2 -26 4 -32 4 -8 1 -13 15 -13 36 l0 35 -85 0 c-76 0
-85 -2 -85 -18 0 -27 -7 -30 -48 -22 -20 5 -54 11 -76 13 -21 3 -42 10 -45 16
-4 5 -43 11 -89 12 l-82 2 0 83 0 84 -85 0 -85 0 0 -70 0 -71 -52 7 c-29 4
-60 8 -68 10 -8 1 -23 3 -32 3 -15 1 -18 11 -18 61 l0 60 -85 0 -85 0 0 -46 0
-46 -32 6 c-18 3 -51 8 -74 11 l-40 5 -24 -128 c-14 -70 -23 -130 -22 -134 1
-5 -32 -8 -73 -8 l-75 0 0 -85 0 -85 55 0 c60 0 61 -2 46 -60 -5 -19 -12 -52
-16 -72 -6 -36 -8 -38 -45 -38 l-40 0 0 -85 c0 -78 2 -85 20 -85 19 0 25 -11
20 -35 -1 -5 -6 -34 -12 -65 -5 -30 -13 -59 -18 -65 -4 -5 -10 -39 -13 -75 -9
-101 -8 -100 -93 -100 l-74 0 0 -85 0 -85 60 0 c61 0 61 0 56 -27 -2 -16 -5
-28 -6 -28 -1 0 -3 -11 -4 -25 -2 -14 -6 -40 -10 -57 -7 -31 -10 -33 -52 -33
l-44 0 0 -85 0 -85 29 0 c28 0 29 -2 21 -30 -5 -17 -9 -34 -9 -38 0 -45 -15
-102 -27 -102 -11 0 -14 -17 -15 -67 -1 -38 -2 -75 -3 -83 -1 -12 -19 -16 -83
-18 l-83 -3 0 -84 0 -85 64 0 c61 0 64 -1 61 -22 -24 -157 -19 -148 -76 -148
l-49 0 0 -85 0 -85 28 0 c16 0 31 -2 34 -5 2 -3 -3 -40 -12 -82 -12 -57 -21
-79 -33 -81 -13 -3 -17 -15 -17 -56 0 -30 -3 -68 -6 -85 l-7 -31 -78 0 -79 0
0 -85 0 -85 60 0 60 0 -6 -37 c-4 -21 -7 -42 -9 -48 -1 -5 -5 -27 -10 -47 -7
-37 -8 -38 -51 -38 l-44 0 0 -85 c0 -85 0 -85 26 -85 23 0 25 -3 21 -32 -9
-60 -28 -132 -36 -138 -5 -3 -11 -32 -14 -65 -11 -107 -4 -100 -90 -103 l-77
-3 0 -84 0 -85 56 0 c52 0 55 -1 49 -21 -4 -12 -8 -27 -9 -33 -1 -6 -8 -35
-16 -63 -13 -50 -15 -53 -47 -53 l-33 0 0 -85 c0 -47 4 -85 9 -85 6 0 8 -10 6
-21 -6 -33 -15 -36 -15 -6 l0 27 -85 0 -85 0 0 -85 0 -84 69 -3 70 -3 -27 -80
-27 -80 -42 -3 -43 -3 0 -84 c0 -54 4 -85 12 -87 8 -3 8 -12 0 -34 l-10 -29
-1 33 -1 32 -85 0 -85 0 0 -85 0 -84 64 -3 65 -3 -36 -82 c-33 -76 -38 -83
-64 -83 l-29 0 0 -67 c-1 -94 -10 -103 -99 -103 l-71 0 0 -84 0 -85 28 -3 27
-3 -27 -50 -28 -50 0 53 0 52 -85 0 -85 0 0 -85 0 -85 60 0 c33 0 60 -3 60 -8
0 -8 -49 -84 -60 -92 -4 -3 -15 -20 -25 -38 -11 -17 -23 -32 -27 -32 -4 0 -8
-6 -8 -13 0 -7 -8 -20 -17 -29 -10 -9 -23 -23 -28 -30 -65 -85 -78 -98 -101
-98 -19 0 -24 -5 -24 -27 0 -18 -13 -40 -36 -64 l-37 -38 34 -20 34 -21 -82 0
-83 0 0 85 0 85 85 0 85 0 0 85 0 85 -85 0 -85 0 0 85 0 85 85 0 85 0 0 85 0
85 -85 0 -85 0 0 85 0 85 85 0 85 0 0 85 0 85 -85 0 -85 0 0 85 0 85 85 0 85
0 0 85 0 85 -85 0 -85 0 0 85 0 85 85 0 85 0 0 85 0 85 -85 0 -85 0 0 85 0 85
85 0 85 0 0 85 0 85 -85 0 -85 0 0 85 0 85 85 0 85 0 0 85 0 85 -85 0 -85 0 0
85 0 85 85 0 85 0 0 85 0 85 -85 0 -85 0 0 85 0 85 85 0 85 0 0 85 0 85 -85 0
-85 0 0 85 0 85 85 0 85 0 0 85 0 85 -85 0 -85 0 0 85 0 85 85 0 85 0 0 85 0
85 -85 0 -85 0 0 85 0 85 85 0 85 0 0 85 0 85 -85 0 -85 0 0 85 0 85 85 0 85
0 0 85 0 85 -85 0 -85 0 0 85 0 85 85 0 85 0 0 85 0 85 -85 0 -85 0 0 85 0 85
85 0 85 0 0 85 0 85 -85 0 -85 0 0 85 0 85 85 0 85 0 0 85 0 85 -85 0 -85 0 0
85 0 85 85 0 85 0 0 85 0 85 -85 0 -85 0 0 85 0 85 85 0 85 0 0 85 0 85 -85 0
-85 0 0 85 0 85 85 0 85 0 0 85 0 85 -85 0 -85 0 0 85 0 85 85 0 85 0 0 -85z
m8500 -1700 l0 -85 -85 0 -84 0 4 38 c3 20 8 58 11 85 l7 47 73 0 74 0 0 -85z
m-85 -255 l85 0 0 -85 0 -85 -85 0 -85 0 0 -85 0 -85 85 0 85 0 0 -85 0 -85
-85 0 -85 0 0 -85 0 -85 85 0 85 0 0 -85 0 -85 -85 0 -85 0 0 -85 0 -85 85 0
85 0 0 -85 0 -85 -85 0 -85 0 0 -85 0 -85 85 0 85 0 0 -85 0 -85 -85 0 -85 0
0 -85 0 -85 85 0 85 0 0 -85 0 -85 -85 0 -85 0 0 -85 0 -85 85 0 85 0 0 -85 0
-85 -85 0 -85 0 0 -85 0 -85 85 0 85 0 0 -85 0 -85 -85 0 -85 0 0 -85 0 -85
85 0 85 0 0 -85 0 -85 -85 0 -85 0 0 -85 0 -85 85 0 85 0 0 -85 0 -85 -85 0
-85 0 0 -85 0 -85 85 0 85 0 0 -85 0 -85 -85 0 -85 0 0 -85 0 -85 85 0 85 0 0
-85 0 -85 -85 0 -85 0 0 -85 0 -85 85 0 85 0 0 -85 0 -85 -85 0 -85 0 0 -85 0
-85 85 0 85 0 0 -85 0 -85 -85 0 -85 0 0 -85 0 -85 85 0 85 0 0 -85 0 -85 -85
0 -85 0 0 -85 0 -85 85 0 85 0 0 -85 0 -85 -85 0 -85 0 0 -85 0 -85 85 0 85 0
0 -85 0 -85 -85 0 -85 0 0 -85 0 -85 85 0 85 0 0 -85 0 -85 -85 0 -85 0 0 -85
0 -85 85 0 85 0 0 -85 0 -85 -85 0 -85 0 0 -85 0 -85 85 0 85 0 0 -85 0 -85
-85 0 -85 0 0 85 0 85 -85 0 -85 0 0 -85 0 -85 -85 0 -85 0 0 85 0 85 -85 0
-85 0 0 -85 0 -85 -85 0 -85 0 0 85 0 85 -85 0 -85 0 0 -85 0 -85 -85 0 -85 0
0 85 0 85 -85 0 -85 0 0 -85 0 -85 -85 0 -85 0 0 85 0 85 -85 0 -85 0 0 -85 0
-85 -85 0 -85 0 0 85 0 85 -85 0 -85 0 0 -85 0 -85 -85 0 -85 0 0 85 0 85 -85
0 -85 0 0 -85 0 -85 -85 0 -85 0 0 85 0 85 -85 0 -85 0 0 -85 0 -85 -85 0 -85
0 0 85 0 85 -85 0 -85 0 0 -85 0 -85 -85 0 -85 0 0 85 0 85 -85 0 -85 0 0 -85
0 -85 -85 0 -85 0 0 85 0 85 -85 0 -85 0 0 -85 0 -85 -85 0 -85 0 0 85 0 85
-85 0 -85 0 0 -85 0 -85 -85 0 -85 0 0 85 0 85 -85 0 -85 0 0 -85 0 -85 -85 0
-85 0 0 85 0 85 -85 0 -85 0 0 -85 0 -85 -85 0 -85 0 0 85 0 85 -85 0 -85 0 0
-85 0 -85 -85 0 -85 0 0 85 0 85 -85 0 -85 0 0 -85 0 -85 -85 0 -85 0 0 85 0
85 -85 0 -85 0 0 -85 0 -85 -85 0 -85 0 0 85 0 85 -85 0 -85 0 0 -85 0 -85
-85 0 -85 0 0 85 0 85 -85 0 -85 0 0 -85 0 -85 -85 0 -85 0 0 85 0 85 -85 0
-85 0 0 -85 0 -85 -85 0 -85 0 0 85 0 85 -85 0 -85 0 0 -85 0 -85 -85 0 -85 0
0 85 0 85 -85 0 -85 0 0 -85 0 -85 -85 0 -85 0 0 85 0 85 -85 0 -85 0 0 -85 0
-85 -85 0 -85 0 0 85 0 85 -85 0 -85 0 0 -85 0 -85 -85 0 -85 0 0 85 0 85 -85
0 -85 0 0 -85 0 -85 -85 0 -85 0 0 85 0 85 85 0 85 0 0 85 0 85 -85 0 -85 0 0
85 0 85 85 0 85 0 0 85 0 85 -85 0 -85 0 0 85 0 85 85 0 85 0 0 85 0 85 -85 0
-85 0 0 85 0 85 85 0 85 0 0 85 0 85 -85 0 -85 0 0 85 0 85 85 0 85 0 0 85 0
85 -85 0 -85 0 0 85 0 85 85 0 85 0 0 84 0 84 85 -46 c84 -45 85 -45 85 -84
l0 -38 85 0 85 0 0 -85 0 -85 85 0 85 0 0 45 c0 25 4 45 9 45 25 0 156 -60
159 -73 2 -10 22 -16 60 -20 31 -2 69 -11 84 -18 27 -12 28 -16 28 -81 l0 -68
85 0 85 0 0 40 c0 41 6 45 50 27 8 -3 39 -14 68 -23 30 -9 52 -22 52 -30 0
-10 15 -14 54 -14 29 0 67 -5 85 -11 l31 -11 0 -74 0 -74 85 0 85 0 0 50 0 49
33 -6 c17 -3 37 -9 42 -13 6 -5 28 -10 50 -14 22 -3 41 -5 43 -6 1 0 2 -14 2
-31 l0 -32 108 5 c59 2 97 2 84 0 -21 -3 -22 -8 -22 -88 l0 -84 85 0 85 0 0
70 c0 39 3 70 6 70 4 0 23 -4 43 -10 20 -5 55 -14 79 -20 l42 -11 0 -49 0 -50
85 0 85 0 0 30 c0 26 3 30 23 26 12 -3 47 -10 77 -15 30 -6 60 -18 66 -26 8
-10 30 -15 70 -15 104 0 104 0 104 -91 l0 -79 85 0 85 0 0 61 0 60 37 -5 c21
-3 59 -11 86 -17 l47 -11 0 -44 0 -44 85 0 85 0 0 28 0 29 73 -15 c39 -7 78
-14 85 -15 6 0 12 -6 12 -13 0 -10 23 -14 83 -16 l82 -3 3 -82 3 -83 84 0 85
0 0 65 0 65 38 -5 c20 -3 53 -9 72 -13 19 -5 40 -9 45 -10 6 -1 11 -24 13 -52
l3 -50 85 0 84 0 0 36 c0 34 1 35 28 30 15 -4 44 -8 65 -10 21 -2 40 -6 43 -9
3 -3 12 -3 20 0 10 4 14 -3 14 -21 0 -26 0 -26 84 -26 46 0 86 4 88 8 2 5 14
5 28 1 l25 -7 -27 -1 -28 -1 0 -85 0 -85 85 0 85 0 0 80 c0 59 3 78 13 75 6
-2 30 -7 52 -10 22 -3 55 -8 73 -11 l32 -6 0 -64 0 -64 85 0 85 0 0 51 0 50
38 -6 c20 -3 51 -8 67 -12 17 -3 38 -5 48 -5 13 1 17 -8 17 -39 l0 -39 85 0
c82 0 85 1 85 23 0 25 12 26 84 12 22 -4 48 -8 58 -9 10 -1 22 -6 26 -13 5 -7
39 -13 87 -15 l80 -3 3 -82 3 -83 84 0 85 0 0 71 0 71 26 -6 c32 -8 103 -19
127 -20 14 0 17 -10 17 -58 l0 -58 85 0 85 0 0 45 c0 31 4 43 13 40 6 -2 30
-6 52 -9 96 -12 105 -17 105 -47 l0 -29 85 0 c79 0 85 1 85 21 0 11 4 18 10
14 5 -3 31 -8 57 -11 52 -5 64 -8 103 -17 23 -6 127 -19 158 -20 8 0 12 -23
12 -79 l0 -78 85 0 85 0 0 63 c0 71 -7 67 90 52 30 -5 60 -9 65 -9 6 -1 11
-25 13 -53 l3 -53 85 0 84 0 0 85 c0 79 -2 85 -20 85 -17 0 -19 5 -16 28 2 15
8 47 11 72 4 25 11 52 15 60 4 8 10 48 14 88 3 41 8 78 12 83 3 5 39 9 80 9
l74 0 0 85 0 85 -66 0 c-36 0 -63 4 -60 9 7 10 23 108 25 149 1 8 18 12 51 12
l50 0 0 85 0 85 -34 0 c-37 0 -37 2 -11 130 2 8 4 21 4 28 1 6 11 12 22 12 21
0 21 4 17 103 -2 56 -2 94 0 85 3 -16 15 -18 88 -18 l84 0 0 85 0 85 -76 0
-75 0 6 47 c4 27 11 65 16 86 l10 37 59 0 60 0 0 84 0 85 -47 3 c-37 2 -47 7
-44 18 2 8 5 29 8 45 15 96 17 100 51 103 l32 3 0 85 c0 75 -2 84 -18 84 -12
0 -18 7 -17 17 3 30 15 96 26 138 5 22 11 60 14 85 2 25 7 54 9 65 2 11 5 23
5 28 1 4 35 7 76 7 l75 0 0 85 0 85 -60 0 -60 0 4 33 c3 17 8 50 12 72 3 22 6
46 7 53 0 8 17 12 49 12 l48 0 0 85 0 85 -36 0 c-19 0 -33 4 -30 8 9 15 21 86
25 150 1 6 10 12 22 12 19 0 20 5 17 88 l-3 87 88 -3 87 -3 0 85 0 86 -76 0
-76 0 8 33 c4 17 8 42 10 54 9 81 11 83 75 83 l59 0 0 85 0 85 -45 0 c-44 0
-45 1 -41 28 3 15 8 50 12 77 8 63 9 65 45 65 l29 0 0 85 c0 71 -3 85 -16 85
-15 0 -15 22 0 105 19 105 33 196 35 223 1 8 23 12 76 12 l75 0 0 85 0 85 -61
0 c-53 0 -60 2 -55 18 5 20 18 98 21 127 1 16 10 21 48 23 l47 3 0 85 0 84
-31 0 c-28 0 -30 2 -25 28 2 15 7 45 11 67 9 61 15 75 31 75 11 0 14 18 14 85
l0 85 85 0 85 0 0 85 0 85 -71 0 -72 0 8 48 c4 26 8 56 10 67 2 11 4 28 4 38
1 14 11 17 61 17 l60 0 0 85 0 85 -44 0 c-37 0 -44 3 -42 18 4 20 19 103 21
117 1 6 3 16 3 23 1 6 15 12 32 12 l30 0 0 85 c0 68 -3 85 -15 85 -14 0 -14 6
0 100 6 43 9 37 12 -32 l4 -68 84 0z"/>
<path d="M510 8575 l0 -85 -85 0 -85 0 0 -85 0 -85 85 0 85 0 0 -85 0 -85 -85
0 -85 0 0 -85 0 -85 85 0 85 0 0 -85 0 -85 -85 0 -85 0 0 -85 0 -85 85 0 85 0
0 -85 0 -85 -85 0 -85 0 0 -85 0 -85 85 0 85 0 0 -85 0 -85 -85 0 -85 0 0 -85
0 -85 85 0 85 0 0 -85 0 -85 -85 0 -85 0 0 -85 0 -85 85 0 85 0 0 -85 0 -85
-85 0 -85 0 0 -85 0 -85 85 0 85 0 0 -85 0 -85 -85 0 -85 0 0 -85 0 -85 85 0
85 0 0 -85 0 -85 -85 0 -85 0 0 -85 0 -85 85 0 85 0 0 -85 0 -85 -85 0 -85 0
0 -85 0 -85 85 0 85 0 0 -85 0 -85 -85 0 -85 0 0 -85 0 -85 85 0 85 0 0 -85 0
-85 -85 0 -85 0 0 -85 0 -85 85 0 85 0 0 -85 0 -85 -85 0 -85 0 0 -85 0 -85
85 0 85 0 0 -85 0 -85 -85 0 -85 0 0 -85 0 -85 85 0 85 0 0 -85 0 -85 -85 0
-85 0 0 -85 0 -85 85 0 85 0 0 -85 0 -85 -85 0 -85 0 0 -85 0 -85 85 0 85 0 0
-85 0 -85 -85 0 -85 0 0 -85 0 -85 85 0 85 0 0 85 0 85 85 0 85 0 0 85 0 85
85 0 85 0 0 85 0 85 -85 0 -85 0 0 85 0 85 85 0 85 0 0 85 0 85 85 0 85 0 0
85 0 85 -85 0 -85 0 0 85 0 85 85 0 85 0 0 85 0 85 85 0 85 0 0 85 0 85 -85 0
-85 0 0 85 0 85 85 0 85 0 0 85 0 85 85 0 85 0 0 85 0 85 -85 0 -85 0 0 85 0
85 85 0 85 0 0 85 0 85 -85 0 -85 0 0 85 0 85 85 0 85 0 0 85 0 85 85 0 85 0
0 85 0 85 -85 0 -85 0 0 85 0 85 85 0 85 0 0 85 0 85 -85 0 -85 0 0 85 0 85
85 0 85 0 0 85 0 85 85 0 85 0 0 85 0 85 -85 0 -85 0 0 85 0 85 85 0 85 0 0
85 0 85 -85 0 -85 0 0 85 0 85 85 0 85 0 0 85 0 85 85 0 85 0 0 85 0 85 -85 0
-85 0 0 85 0 85 85 0 85 0 0 85 0 85 -85 0 -85 0 0 85 0 85 85 0 85 0 0 85 0
85 85 0 85 0 0 85 0 85 85 0 85 0 0 85 0 85 85 0 85 0 0 -85 0 -85 85 0 85 0
0 85 0 85 85 0 85 0 0 -85 0 -85 85 0 85 0 0 -85 0 -85 85 0 85 0 0 85 0 85
85 0 85 0 0 -85 0 -85 85 0 85 0 0 85 0 85 85 0 85 0 0 -85 0 -85 85 0 85 0 0
85 0 85 85 0 85 0 0 -85 0 -85 85 0 85 0 0 -85 0 -85 85 0 85 0 0 85 0 85 85
0 85 0 0 -85 0 -85 85 0 85 0 0 85 0 85 85 0 85 0 0 -85 0 -85 85 0 85 0 0 85
0 85 -85 0 -85 0 0 85 0 85 85 0 85 0 0 85 0 85 85 0 85 0 0 85 0 85 -85 0
-85 0 0 -85 0 -85 -85 0 -85 0 0 85 0 85 -85 0 -85 0 0 -85 0 -85 -85 0 -85 0
0 85 0 85 -85 0 -85 0 0 -85 0 -85 -85 0 -85 0 0 85 0 85 -85 0 -85 0 0 -85 0
-85 -85 0 -85 0 0 85 0 85 -85 0 -85 0 0 -85 0 -85 -85 0 -85 0 0 85 0 85 -85
0 -85 0 0 -85 0 -85 -85 0 -85 0 0 85 0 85 -85 0 -85 0 0 -85 0 -85 -85 0 -85
0 0 85 0 85 -85 0 -85 0 0 -85 0 -85 -85 0 -85 0 0 85 0 85 -85 0 -85 0 0 -85
0 -85 -85 0 -85 0 0 85 0 85 -85 0 -85 0 0 -85 0 -85 -85 0 -85 0 0 85 0 85
-85 0 -85 0 0 -85 0 -85 -85 0 -85 0 0 85 0 85 -85 0 -85 0 0 -85 0 -85 -85 0
-85 0 0 85 0 85 -85 0 -85 0 0 -85 0 -85 -85 0 -85 0 0 85 0 85 -85 0 -85 0 0
-85z m170 -170 l0 -85 85 0 85 0 0 85 0 85 85 0 85 0 0 -85 0 -85 85 0 85 0 0
85 0 85 85 0 85 0 0 -85 0 -85 85 0 85 0 0 85 0 85 85 0 85 0 0 -85 0 -85 85
0 85 0 0 85 0 85 85 0 85 0 0 -85 0 -85 -85 0 -85 0 0 -85 0 -85 -85 0 -85 0
0 -85 0 -85 -85 0 -85 0 0 -85 0 -85 85 0 85 0 0 -85 0 -85 -85 0 -85 0 0 -85
0 -85 85 0 85 0 0 -85 0 -85 -85 0 -85 0 0 -85 0 -85 -85 0 -85 0 0 -85 0 -85
85 0 85 0 0 -85 0 -85 -85 0 -85 0 0 -85 0 -85 85 0 85 0 0 -85 0 -85 -85 0
-85 0 0 -85 0 -85 -85 0 -85 0 0 -85 0 -85 85 0 85 0 0 -85 0 -85 -85 0 -85 0
0 -85 0 -85 85 0 85 0 0 -85 0 -85 -85 0 -85 0 0 -85 0 -85 -85 0 -85 0 0 -85
0 -85 85 0 85 0 0 -85 0 -85 -85 0 -85 0 0 -85 0 -85 85 0 85 0 0 -85 0 -85
-85 0 -85 0 0 -85 0 -85 -85 0 -85 0 0 -85 0 -85 85 0 85 0 0 -85 0 -85 -85 0
-85 0 0 -85 0 -85 -85 0 -85 0 0 -85 0 -85 85 0 85 0 0 -85 0 -85 -85 0 -85 0
0 -85 0 -85 -85 0 -85 0 0 85 0 85 85 0 85 0 0 85 0 85 -85 0 -85 0 0 85 0 85
85 0 85 0 0 85 0 85 -85 0 -85 0 0 85 0 85 85 0 85 0 0 85 0 85 -85 0 -85 0 0
85 0 85 85 0 85 0 0 85 0 85 -85 0 -85 0 0 85 0 85 85 0 85 0 0 85 0 85 -85 0
-85 0 0 85 0 85 85 0 85 0 0 85 0 85 -85 0 -85 0 0 85 0 85 85 0 85 0 0 85 0
85 -85 0 -85 0 0 85 0 85 85 0 85 0 0 85 0 85 -85 0 -85 0 0 85 0 85 85 0 85
0 0 85 0 85 -85 0 -85 0 0 85 0 85 85 0 85 0 0 85 0 85 -85 0 -85 0 0 85 0 85
85 0 85 0 0 85 0 85 -85 0 -85 0 0 85 0 85 85 0 85 0 0 85 0 85 -85 0 -85 0 0
85 0 85 85 0 85 0 0 85 0 85 -85 0 -85 0 0 85 0 85 85 0 85 0 0 85 0 85 -85 0
-85 0 0 85 0 85 85 0 85 0 0 -85z m2380 0 l0 -85 -85 0 -85 0 0 85 0 85 85 0
85 0 0 -85z m340 0 l0 -85 -85 0 -85 0 0 85 0 85 85 0 85 0 0 -85z m340 0 l0
-85 -85 0 -85 0 0 85 0 85 85 0 85 0 0 -85z m340 0 l0 -85 85 0 85 0 0 85 0
85 85 0 85 0 0 -85 0 -85 85 0 85 0 0 85 0 85 85 0 85 0 0 -85 0 -85 -85 0
-85 0 0 -85 0 -85 -85 0 -85 0 0 85 0 85 -85 0 -85 0 0 -85 0 -85 -85 0 -85 0
0 85 0 85 -85 0 -85 0 0 85 0 85 85 0 85 0 0 -85z m-3400 -5100 l0 -85 -85 0
-85 0 0 85 0 85 85 0 85 0 0 -85z"/>
<path d="M850 8235 l0 -85 -85 0 -85 0 0 -85 0 -85 85 0 85 0 0 -85 0 -85 -85
0 -85 0 0 -85 0 -85 85 0 85 0 0 -85 0 -85 -85 0 -85 0 0 -85 0 -85 85 0 85 0
0 -85 0 -85 -85 0 -85 0 0 -85 0 -85 85 0 85 0 0 -85 0 -85 -85 0 -85 0 0 -85
0 -85 85 0 85 0 0 -85 0 -85 -85 0 -85 0 0 -85 0 -85 85 0 85 0 0 -85 0 -85
-85 0 -85 0 0 -85 0 -85 85 0 85 0 0 -85 0 -85 -85 0 -85 0 0 -85 0 -85 85 0
85 0 0 -85 0 -85 -85 0 -85 0 0 -85 0 -85 85 0 85 0 0 -85 0 -85 -85 0 -85 0
0 -85 0 -85 85 0 85 0 0 -85 0 -85 -85 0 -85 0 0 -85 0 -85 85 0 85 0 0 85 0
85 85 0 85 0 0 85 0 85 -85 0 -85 0 0 85 0 85 85 0 85 0 0 85 0 85 -85 0 -85
0 0 85 0 85 85 0 85 0 0 85 0 85 85 0 85 0 0 85 0 85 -85 0 -85 0 0 85 0 85
85 0 85 0 0 85 0 85 -85 0 -85 0 0 85 0 85 85 0 85 0 0 85 0 85 85 0 85 0 0
85 0 85 -85 0 -85 0 0 85 0 85 85 0 85 0 0 85 0 85 -85 0 -85 0 0 85 0 85 85
0 85 0 0 85 0 85 85 0 85 0 0 85 0 85 -85 0 -85 0 0 85 0 85 85 0 85 0 0 85 0
85 -85 0 -85 0 0 85 0 85 85 0 85 0 0 85 0 85 85 0 85 0 0 85 0 85 -85 0 -85
0 0 -85 0 -85 -85 0 -85 0 0 85 0 85 -85 0 -85 0 0 -85 0 -85 -85 0 -85 0 0
85 0 85 -85 0 -85 0 0 -85z m170 -170 l0 -85 85 0 85 0 0 85 0 85 85 0 85 0 0
-85 0 -85 -85 0 -85 0 0 -85 0 -85 85 0 85 0 0 -85 0 -85 -85 0 -85 0 0 -85 0
-85 85 0 85 0 0 -85 0 -85 -85 0 -85 0 0 -85 0 -85 -85 0 -85 0 0 -85 0 -85
85 0 85 0 0 -85 0 -85 -85 0 -85 0 0 -85 0 -85 85 0 85 0 0 -85 0 -85 -85 0
-85 0 0 -85 0 -85 -85 0 -85 0 0 85 0 85 85 0 85 0 0 85 0 85 -85 0 -85 0 0
85 0 85 85 0 85 0 0 85 0 85 -85 0 -85 0 0 85 0 85 85 0 85 0 0 85 0 85 -85 0
-85 0 0 85 0 85 85 0 85 0 0 85 0 85 -85 0 -85 0 0 85 0 85 85 0 85 0 0 85 0
85 -85 0 -85 0 0 85 0 85 85 0 85 0 0 -85z m0 -2040 l0 -85 -85 0 -85 0 0 85
0 85 85 0 85 0 0 -85z m0 -340 l0 -85 -85 0 -85 0 0 85 0 85 85 0 85 0 0 -85z"/>
<path d="M1020 7725 l0 -85 85 0 85 0 0 85 0 85 -85 0 -85 0 0 -85z"/>
<path d="M1020 7385 l0 -85 85 0 85 0 0 85 0 85 -85 0 -85 0 0 -85z"/>
<path d="M680 4325 l0 -85 85 0 85 0 0 85 0 85 -85 0 -85 0 0 -85z"/>
<path d="M5270 8575 l0 -85 85 0 85 0 0 85 0 85 -85 0 -85 0 0 -85z"/>
<path d="M5610 8575 l0 -85 85 0 85 0 0 -85 0 -85 85 0 85 0 0 -85 0 -85 -85
0 -85 0 0 -85 0 -85 -85 0 -85 0 0 -85 0 -85 85 0 85 0 0 85 0 85 85 0 85 0 0
-85 0 -85 85 0 85 0 0 85 0 85 85 0 85 0 0 -85 0 -85 85 0 85 0 0 -85 0 -85
85 0 85 0 0 85 0 85 85 0 85 0 0 -85 0 -85 85 0 85 0 0 85 0 85 85 0 85 0 0
-85 0 -85 85 0 85 0 0 85 0 85 85 0 85 0 0 -85 0 -85 85 0 85 0 0 -85 0 -85
85 0 85 0 0 85 0 85 85 0 85 0 0 -85 0 -85 85 0 85 0 0 85 0 85 85 0 85 0 0
-85 0 -85 85 0 85 0 0 85 0 85 85 0 85 0 0 85 0 85 -85 0 -85 0 0 85 0 85 85
0 85 0 0 85 0 85 -85 0 -85 0 0 85 0 85 85 0 85 0 0 85 0 85 -85 0 -85 0 0 85
0 85 -85 0 -85 0 0 -85 0 -85 -85 0 -85 0 0 85 0 85 -85 0 -85 0 0 -85 0 -85
-85 0 -85 0 0 85 0 85 -85 0 -85 0 0 -85 0 -85 -85 0 -85 0 0 85 0 85 -85 0
-85 0 0 -85 0 -85 -85 0 -85 0 0 85 0 85 -85 0 -85 0 0 -85 0 -85 -85 0 -85 0
0 85 0 85 -85 0 -85 0 0 -85 0 -85 -85 0 -85 0 0 85 0 85 -85 0 -85 0 0 -85 0
-85 -85 0 -85 0 0 85 0 85 -85 0 -85 0 0 -85 0 -85 -85 0 -85 0 0 85 0 85 -85
0 -85 0 0 -85z m510 -170 l0 -85 85 0 85 0 0 85 0 85 85 0 85 0 0 -85 0 -85
85 0 85 0 0 85 0 85 85 0 85 0 0 -85 0 -85 85 0 85 0 0 85 0 85 85 0 85 0 0
-85 0 -85 85 0 85 0 0 85 0 85 85 0 85 0 0 -85 0 -85 85 0 85 0 0 85 0 85 85
0 85 0 0 -85 0 -85 85 0 85 0 0 85 0 85 85 0 85 0 0 -85 0 -85 85 0 85 0 0 85
0 85 85 0 85 0 0 -85 0 -85 -85 0 -85 0 0 -85 0 -85 85 0 85 0 0 -85 0 -85
-85 0 -85 0 0 -85 0 -85 85 0 85 0 0 -85 0 -85 -85 0 -85 0 0 85 0 85 -85 0
-85 0 0 -85 0 -85 -85 0 -85 0 0 85 0 85 -85 0 -85 0 0 -85 0 -85 -85 0 -85 0
0 85 0 85 -85 0 -85 0 0 85 0 85 -85 0 -85 0 0 -85 0 -85 -85 0 -85 0 0 85 0
85 -85 0 -85 0 0 -85 0 -85 -85 0 -85 0 0 85 0 85 -85 0 -85 0 0 -85 0 -85
-85 0 -85 0 0 85 0 85 -85 0 -85 0 0 85 0 85 -85 0 -85 0 0 -85 0 -85 -85 0
-85 0 0 85 0 85 85 0 85 0 0 85 0 85 -85 0 -85 0 0 85 0 85 85 0 85 0 0 -85z"/>
<path d="M6290 8235 l0 -85 85 0 85 0 0 -85 0 -85 85 0 85 0 0 85 0 85 85 0
85 0 0 -85 0 -85 85 0 85 0 0 85 0 85 85 0 85 0 0 -85 0 -85 85 0 85 0 0 85 0
85 85 0 85 0 0 -85 0 -85 85 0 85 0 0 -85 0 -85 85 0 85 0 0 85 0 85 85 0 85
0 0 -85 0 -85 85 0 85 0 0 85 0 85 85 0 85 0 0 85 0 85 -85 0 -85 0 0 85 0 85
-85 0 -85 0 0 -85 0 -85 -85 0 -85 0 0 85 0 85 -85 0 -85 0 0 -85 0 -85 -85 0
-85 0 0 85 0 85 -85 0 -85 0 0 -85 0 -85 -85 0 -85 0 0 85 0 85 -85 0 -85 0 0
-85 0 -85 -85 0 -85 0 0 85 0 85 -85 0 -85 0 0 -85 0 -85 -85 0 -85 0 0 85 0
85 -85 0 -85 0 0 -85z m1530 -170 l0 -85 -85 0 -85 0 0 85 0 85 85 0 85 0 0
-85z m340 0 l0 -85 -85 0 -85 0 0 85 0 85 85 0 85 0 0 -85z"/>
<path d="M340 2625 l0 -85 85 0 85 0 0 85 0 85 -85 0 -85 0 0 -85z"/>
<path d="M8500 5685 l0 -85 85 0 85 0 0 85 0 85 -85 0 -85 0 0 -85z"/>
<path d="M8500 5345 l0 -85 85 0 85 0 0 85 0 85 -85 0 -85 0 0 -85z"/>
<path d="M8500 5005 l0 -85 -85 0 -85 0 0 -85 0 -85 85 0 85 0 0 -85 0 -85
-85 0 -85 0 0 -85 0 -85 85 0 85 0 0 -85 0 -85 -85 0 -85 0 0 -85 0 -85 85 0
85 0 0 -85 0 -85 -85 0 -85 0 0 -85 0 -85 -85 0 -85 0 0 -85 0 -85 85 0 85 0
0 -85 0 -85 -85 0 -85 0 0 -85 0 -85 85 0 85 0 0 -85 0 -85 -85 0 -85 0 0 -85
0 -85 -85 0 -85 0 0 -85 0 -85 85 0 85 0 0 -85 0 -85 -85 0 -85 0 0 -85 0 -85
85 0 85 0 0 -85 0 -85 -85 0 -85 0 0 -85 0 -85 85 0 85 0 0 -85 0 -85 -85 0
-85 0 0 -85 0 -85 -85 0 -85 0 0 -85 0 -85 85 0 85 0 0 -85 0 -85 -85 0 -85 0
0 -85 0 -85 85 0 85 0 0 -85 0 -85 -85 0 -85 0 0 -85 0 -85 -85 0 -85 0 0 -85
0 -85 85 0 85 0 0 -85 0 -85 85 0 85 0 0 -85 0 -85 85 0 85 0 0 85 0 85 -85 0
-85 0 0 85 0 85 85 0 85 0 0 85 0 85 85 0 85 0 0 -85 0 -85 -83 0 c-46 0 -86
-2 -88 -4 -2 -2 -3 -41 -1 -85 l4 -81 84 0 84 0 0 -85 0 -85 85 0 85 0 0 85 0
85 85 0 85 0 0 85 0 85 -85 0 -85 0 0 85 0 85 85 0 85 0 0 85 0 85 -85 0 -85
0 0 85 0 85 85 0 85 0 0 85 0 85 -85 0 -85 0 0 85 0 85 85 0 85 0 0 85 0 85
-85 0 -85 0 0 85 0 85 85 0 85 0 0 85 0 85 -85 0 -85 0 0 85 0 85 85 0 85 0 0
85 0 85 -85 0 -85 0 0 85 0 85 85 0 85 0 0 85 0 85 -85 0 -85 0 0 85 0 85 85
0 85 0 0 85 0 85 -85 0 -85 0 0 85 0 85 85 0 85 0 0 85 0 85 -85 0 -85 0 0 85
0 85 85 0 85 0 0 85 0 85 -85 0 -85 0 0 85 0 85 85 0 85 0 0 85 0 85 -85 0
-85 0 0 85 0 85 85 0 85 0 0 85 0 85 -85 0 -85 0 0 85 0 85 85 0 85 0 0 85 0
85 -85 0 -85 0 0 85 0 85 85 0 85 0 0 85 0 85 -85 0 -85 0 0 -85z m0 -1360 l0
-85 -85 0 -85 0 0 85 0 85 85 0 85 0 0 -85z m0 -340 l0 -85 -85 0 -85 0 0 85
0 85 85 0 85 0 0 -85z m0 -340 l0 -85 -85 0 -85 0 0 -85 0 -85 85 0 85 0 0
-85 0 -85 -85 0 -85 0 0 -85 0 -85 85 0 85 0 0 -85 0 -85 -85 0 -85 0 0 -85 0
-85 85 0 85 0 0 -85 0 -85 -85 0 -85 0 0 -85 0 -85 85 0 85 0 0 -85 0 -85 -85
0 -85 0 0 -85 0 -85 85 0 85 0 0 -85 0 -85 -85 0 -85 0 0 -85 0 -85 85 0 85 0
0 -85 0 -85 -85 0 -85 0 0 85 0 85 -85 0 -85 0 0 -85 0 -85 -85 0 -85 0 0 -85
0 -85 -85 0 -85 0 0 85 0 85 85 0 85 0 0 85 0 85 85 0 85 0 0 85 0 85 -85 0
-85 0 0 85 0 85 85 0 85 0 0 85 0 85 -85 0 -85 0 0 85 0 85 85 0 85 0 0 85 0
85 85 0 85 0 0 85 0 85 -85 0 -85 0 0 85 0 85 85 0 85 0 0 85 0 85 -85 0 -85
0 0 85 0 85 85 0 85 0 0 85 0 85 -85 0 -85 0 0 85 0 85 85 0 85 0 0 85 0 85
85 0 85 0 0 -85z m0 -2380 l0 -85 -84 0 -85 0 0 85 0 85 85 0 84 0 0 -85z"/>
<path d="M8160 1605 l0 -85 85 0 85 0 0 85 0 85 -85 0 -85 0 0 -85z"/>
<path d="M8160 1265 l0 -85 85 0 85 0 0 85 0 85 -85 0 -85 0 0 -85z"/>
<path d="M340 1945 l0 -85 85 0 85 0 0 -85 0 -85 -85 0 -85 0 0 -85 0 -85 85
0 85 0 0 -85 0 -85 -85 0 -85 0 0 -85 0 -85 85 0 85 0 0 -85 0 -85 -85 0 -85
0 0 -85 0 -85 85 0 85 0 0 -85 0 -85 -85 0 -85 0 0 -85 0 -85 85 0 85 0 0 -85
0 -85 85 0 85 0 0 85 0 85 85 0 85 0 0 -85 0 -85 85 0 85 0 0 85 0 85 85 0 85
0 0 -85 0 -85 85 0 85 0 0 85 0 85 85 0 85 0 0 -85 0 -85 85 0 85 0 0 85 0 85
85 0 85 0 0 -85 0 -85 85 0 85 0 0 85 0 85 85 0 85 0 0 -85 0 -85 85 0 85 0 0
85 0 85 85 0 85 0 0 -85 0 -85 85 0 85 0 0 85 0 85 85 0 85 0 0 -85 0 -85 85
0 85 0 0 85 0 85 85 0 85 0 0 -85 0 -85 85 0 85 0 0 85 0 85 85 0 85 0 0 -85
0 -85 85 0 85 0 0 85 0 85 85 0 85 0 0 -85 0 -85 85 0 85 0 0 85 0 85 85 0 85
0 0 -85 0 -85 85 0 85 0 0 85 0 85 85 0 85 0 0 -85 0 -85 85 0 85 0 0 85 0 85
85 0 85 0 0 -85 0 -85 85 0 85 0 0 85 0 85 85 0 85 0 0 -85 0 -85 85 0 85 0 0
85 0 85 85 0 85 0 0 -85 0 -85 85 0 85 0 0 84 0 85 85 0 85 0 0 -84 0 -85 85
0 85 0 0 85 0 85 85 0 85 0 0 -85 0 -85 85 0 85 0 0 85 0 85 85 0 85 0 0 85 0
85 -85 0 -85 0 0 -85 0 -85 -85 0 -85 0 0 85 0 85 -85 0 -85 0 0 -85 0 -85
-85 0 -85 0 0 85 0 85 -85 0 -85 0 0 -85 0 -85 -85 0 -85 0 0 85 0 85 85 0 85
0 0 85 0 85 -85 0 -85 0 0 -85 0 -85 -85 0 -85 0 0 85 0 85 -85 0 -85 0 0 -85
0 -85 -85 0 -85 0 0 85 0 85 -85 0 -85 0 0 -85 0 -85 -85 0 -85 0 0 85 0 85
-85 0 -85 0 0 85 0 85 -85 0 -85 0 0 -85 0 -85 -85 0 -85 0 0 85 0 85 -85 0
-85 0 0 -85 0 -85 -85 0 -85 0 0 85 0 85 -85 0 -85 0 0 85 0 85 -85 0 -85 0 0
-85 0 -85 -85 0 -85 0 0 85 0 85 -85 0 -85 0 0 -85 0 -85 -85 0 -85 0 0 85 0
85 -85 0 -85 0 0 85 0 85 -85 0 -85 0 0 -85 0 -85 -85 0 -85 0 0 85 0 85 -85
0 -85 0 0 -85 0 -85 -85 0 -85 0 0 85 0 85 -85 0 -85 0 0 85 0 85 -85 0 -85 0
0 -85 0 -85 -85 0 -85 0 0 85 0 85 -85 0 -85 0 0 85 0 85 -85 0 -85 0 0 -85 0
-85 -85 0 -85 0 0 85 0 85 -85 0 -85 0 0 85 0 85 -85 0 -85 0 0 -85 0 -85 -85
0 -85 0 0 85 0 85 -85 0 -85 0 0 85 0 85 -85 0 -85 0 0 -85z m340 -340 l0 -85
85 0 85 0 0 85 0 85 85 0 85 0 0 -85 0 -85 85 0 85 0 0 -85 0 -85 85 0 85 0 0
85 0 85 85 0 85 0 0 -85 0 -85 85 0 85 0 0 -85 0 -85 85 0 85 0 0 85 0 85 85
0 85 0 0 -85 0 -85 85 0 85 0 0 -85 0 -85 85 0 85 0 0 85 0 85 85 0 85 0 0
-85 0 -85 85 0 85 0 0 85 0 85 85 0 85 0 0 -85 0 -85 85 0 85 0 0 -85 0 -85
85 0 85 0 0 85 0 85 85 0 85 0 0 -85 0 -85 85 0 85 0 0 85 0 85 85 0 85 0 0
-85 0 -85 85 0 85 0 0 -85 0 -85 85 0 85 0 0 85 0 85 85 0 85 0 0 -85 0 -85
85 0 85 0 0 85 0 85 85 0 85 0 0 -85 0 -85 85 0 85 0 0 -85 0 -85 -85 0 -85 0
0 85 0 85 -85 0 -85 0 0 -85 0 -85 -85 0 -85 0 0 85 0 85 -85 0 -85 0 0 -85 0
-85 -85 0 -85 0 0 85 0 85 -85 0 -85 0 0 -85 0 -85 -85 0 -85 0 0 85 0 85 -85
0 -85 0 0 -85 0 -85 -85 0 -85 0 0 85 0 85 -85 0 -85 0 0 -85 0 -85 -85 0 -85
0 0 85 0 85 -85 0 -85 0 0 -85 0 -85 -85 0 -85 0 0 85 0 85 -85 0 -85 0 0 -85
0 -85 -85 0 -85 0 0 85 0 85 -85 0 -85 0 0 -85 0 -85 -85 0 -85 0 0 85 0 85
-85 0 -85 0 0 -85 0 -85 -85 0 -85 0 0 85 0 85 -85 0 -85 0 0 -85 0 -85 -85 0
-85 0 0 85 0 85 -85 0 -85 0 0 -85 0 -85 -85 0 -85 0 0 85 0 85 -85 0 -85 0 0
-85 0 -85 -85 0 -85 0 0 85 0 85 85 0 85 0 0 85 0 85 -85 0 -85 0 0 85 0 85
85 0 85 0 0 85 0 85 -85 0 -85 0 0 85 0 85 85 0 85 0 0 85 0 85 -85 0 -85 0 0
85 0 85 85 0 85 0 0 -85z m4420 -1020 l0 -85 -85 0 -85 0 0 85 0 85 85 0 85 0
0 -85z m340 0 l0 -85 -85 0 -85 0 0 85 0 85 85 0 85 0 0 -85z"/>
<path d="M850 1435 l0 -85 -85 0 -85 0 0 -85 0 -85 85 0 85 0 0 -85 0 -85 -85
0 -85 0 0 -85 0 -85 85 0 85 0 0 -85 0 -85 85 0 85 0 0 85 0 85 85 0 85 0 0
-85 0 -85 85 0 85 0 0 85 0 85 85 0 85 0 0 -85 0 -85 85 0 85 0 0 85 0 85 85
0 85 0 0 -85 0 -85 85 0 85 0 0 85 0 85 85 0 85 0 0 -85 0 -85 85 0 85 0 0 85
0 85 85 0 85 0 0 -85 0 -85 85 0 85 0 0 85 0 85 85 0 85 0 0 -85 0 -85 85 0
85 0 0 85 0 85 -85 0 -85 0 0 85 0 85 -85 0 -85 0 0 -85 0 -85 -85 0 -85 0 0
85 0 85 -85 0 -85 0 0 -85 0 -85 -85 0 -85 0 0 85 0 85 -85 0 -85 0 0 85 0 85
-85 0 -85 0 0 -85 0 -85 -85 0 -85 0 0 85 0 85 -85 0 -85 0 0 85 0 85 -85 0
-85 0 0 -85 0 -85 -85 0 -85 0 0 85 0 85 -85 0 -85 0 0 85 0 85 -85 0 -85 0 0
-85z m170 -170 l0 -85 85 0 85 0 0 -85 0 -85 85 0 85 0 0 85 0 85 85 0 85 0 0
-85 0 -85 85 0 85 0 0 -85 0 -85 -85 0 -85 0 0 85 0 85 -85 0 -85 0 0 -85 0
-85 -85 0 -85 0 0 85 0 85 -85 0 -85 0 0 -85 0 -85 -85 0 -85 0 0 85 0 85 85
0 85 0 0 85 0 85 -85 0 -85 0 0 85 0 85 85 0 85 0 0 -85z m1020 -340 l0 -85
-85 0 -85 0 0 85 0 85 85 0 85 0 0 -85z"/>
<path d="M3230 755 l0 -85 85 0 85 0 0 85 0 85 -85 0 -85 0 0 -85z"/>
<path d="M3570 755 l0 -85 85 0 85 0 0 85 0 85 -85 0 -85 0 0 -85z"/>
<path d="M6800 585 l0 -85 85 0 85 0 0 -85 0 -85 84 0 c97 0 94 -4 88 108 l-4
62 -84 0 -84 0 0 85 0 85 -85 0 -85 0 0 -85z"/>
<path d="M6683 502 l-53 -3 0 -85 0 -84 85 0 85 0 0 84 0 84 -32 3 c-18 2 -57
3 -85 1z"/>
<path d="M7310 415 l0 -85 85 0 85 0 0 85 0 85 -85 0 -85 0 0 -85z"/>
<path d="M7650 415 l0 -85 85 0 85 0 0 85 0 85 -85 0 -85 0 0 -85z"/>
</g>
</svg>
